<svg width="35" height="24" viewBox="0 0 35 24" fill="none" xmlns="http://www.w3.org/2000/svg">
<rect x="0.5" y="0.5" width="34" height="23" rx="1.5" fill="white" stroke="#E2E8F0"/>
<path fill-rule="evenodd" clip-rule="evenodd" d="M7.13974 13.7668C6.94832 13.873 6.74451 13.926 6.52846 13.926H6.36174C6.31843 13.926 6.25658 13.9224 6.07797 13.8908L6.68189 11.3212C6.793 11.2213 6.91285 11.1565 7.05179 11.1252C7.19074 11.094 7.28023 11.0856 7.36677 11.0856C7.63214 11.0856 7.83749 11.1626 7.93635 11.3313C8.03507 11.4998 8.08453 11.734 8.08453 12.0338C8.08453 12.2774 8.0443 12.5116 7.96412 12.7364C7.8838 12.9612 7.77424 13.1625 7.63536 13.3406C7.49641 13.5185 7.33109 13.6607 7.13974 13.7668ZM8.50138 10.0761C8.28512 9.96993 8.02898 9.91679 7.73254 9.91679C7.59045 9.91679 7.45772 9.93243 7.33431 9.96363C7.21068 9.99498 7.09426 10.0354 6.97085 10.0916L7.53811 7.67798L6.10238 7.90277L4.5 14.7129C4.67904 14.8004 4.86885 14.869 5.06965 14.9189C5.27023 14.9689 5.46011 15.0063 5.63922 15.0314C5.81826 15.0563 5.97736 15.0703 6.11631 15.0735C6.25525 15.0766 6.3525 15.0782 6.40806 15.0782C6.84022 15.0782 7.24168 14.9953 7.61213 14.8299C7.98266 14.6646 8.30366 14.4398 8.57547 14.1555C8.84714 13.8714 9.06172 13.5373 9.21921 13.1532C9.3767 12.7691 9.4554 12.3616 9.4554 11.9307C9.4554 11.6498 9.42133 11.3875 9.35347 11.1439C9.28546 10.9003 9.18052 10.6881 9.03856 10.5069C8.89646 10.3258 8.71742 10.1823 8.50138 10.0761ZM12.2987 9.31562L12.5096 8.41821H11.1343L10.9233 9.31562H12.2987ZM13.8712 13.8121C13.9723 13.8634 14.1116 13.8888 14.2888 13.8888C14.4407 13.8888 14.5878 13.8745 14.7302 13.8457C14.8233 13.8268 14.9199 13.8046 15.0161 13.7714L14.7297 14.9831C14.7072 14.9887 14.6724 14.9972 14.6495 15.0025C14.4279 15.0536 14.1654 15.0792 13.8617 15.0792C13.4249 15.0792 13.0863 15.0136 12.8459 14.8825C12.6053 14.7513 12.4345 14.5721 12.3333 14.3448C12.232 14.1177 12.1876 13.8569 12.2004 13.5624C12.213 13.2681 12.2574 12.9576 12.3333 12.6312L13.2636 8.65672L14.735 8.42627L14.3742 9.91435H15.95L15.6653 11.0856H14.099L13.6813 12.852C13.6433 12.9993 13.6196 13.1369 13.6101 13.2648C13.6006 13.3929 13.6163 13.5033 13.6576 13.596C13.6986 13.6889 13.7698 13.7609 13.8712 13.8121ZM31 9.91591H29.6247L28.8248 13.3196H28.8262L28.7163 13.7878C28.6395 13.8096 28.5631 13.8292 28.4873 13.8445C28.3449 13.8733 28.1977 13.8878 28.0459 13.8878C27.8686 13.8878 27.7293 13.8622 27.6282 13.8109C27.5269 13.7598 27.4557 13.6878 27.4146 13.5949C27.3734 13.5022 27.3576 13.3918 27.3671 13.2637C27.3767 13.1358 27.4004 12.9982 27.4384 12.8509L27.856 11.0845L28.1313 9.91323L28.1314 9.91287H26.7263L26.0904 12.6301C26.0145 12.9565 25.9701 13.267 25.9575 13.5614C25.9447 13.8558 25.9891 14.1167 26.0904 14.3437C26.1915 14.571 26.3624 14.7503 26.603 14.8814C26.8434 15.0124 27.182 15.0782 27.6187 15.0782C27.9224 15.0782 28.185 15.0526 28.4066 15.0013C28.4155 14.9993 28.4242 14.9971 28.4329 14.9949L28.4323 14.9974C28.3707 15.2778 28.246 15.5051 28.0459 15.6826C27.8456 15.8602 27.5484 15.949 27.1543 15.949C26.986 15.949 26.8332 15.9389 26.6946 15.9195L26.424 17.0712C26.607 17.0952 26.81 17.1076 27.0342 17.1076C27.453 17.1076 27.8196 17.0592 28.1337 16.9627C28.4479 16.8661 28.7172 16.7198 28.9421 16.5235C29.1669 16.3273 29.3547 16.0812 29.5057 15.7855C29.6566 15.4895 29.7782 15.1392 29.8707 14.7342L30.8223 10.6883L30.8189 10.6868L31 9.91591ZM9.56668 15.0792L10.7808 9.91296H12.1562L10.942 15.0792H9.56668ZM24.2542 11.0855C23.6129 11.0855 23.4905 11.0855 23.2277 11.2234C23.0412 11.3211 22.8868 11.4682 22.7512 11.6397C22.6155 11.8113 22.5091 12.0093 22.4321 12.2338C22.3549 12.4584 22.3164 12.6923 22.3164 12.9355C22.3164 13.2349 22.3657 13.4721 22.4645 13.6466C22.563 13.8213 22.745 13.9086 23.0103 13.9086C23.1521 13.9086 23.2801 13.8806 23.3942 13.8244C23.5083 13.7683 23.6302 13.6747 23.7597 13.5437C23.772 13.3879 23.7921 13.2241 23.8198 13.0525C23.8452 12.8957 23.8767 12.7494 23.9056 12.6157L23.9137 12.5784L24.2542 11.0855ZM25.2307 12.8232C25.1443 13.1789 25.1196 13.5359 25.1566 13.8946C25.1937 14.2534 25.3294 14.803 25.4617 15.0782H24.1308C24.0096 14.8709 23.9828 14.7458 23.9643 14.6592C23.9579 14.6296 23.9526 14.6045 23.9447 14.5823C23.772 14.7258 23.5808 14.8443 23.3712 14.9378C23.1614 15.0313 22.927 15.0782 22.668 15.0782C22.3596 15.0782 22.0959 15.0235 21.877 14.9145C21.658 14.8054 21.4791 14.6587 21.3404 14.4747C21.2016 14.2908 21.1012 14.0756 21.0398 13.8291C20.978 13.5827 20.9472 13.3192 20.9472 13.0385C20.9472 12.6081 21.0226 12.2026 21.1739 11.8222C21.3249 11.4417 21.5347 11.1095 21.803 10.8256C22.0712 10.5418 22.7187 9.91599 23.7813 9.91599L25.915 9.91592L25.2307 12.8232ZM17.1838 13.891C17.2893 13.9162 17.4197 13.9287 17.575 13.9287C17.8171 13.9287 18.0375 13.8832 18.2363 13.7921C18.4349 13.7011 18.6042 13.574 18.7439 13.4106C18.8836 13.2474 18.9921 13.0512 19.0698 12.8219C19.1474 12.5927 19.1863 12.3401 19.1863 12.0637C19.1863 11.7938 19.1272 11.5644 19.0093 11.3761C18.8913 11.1877 18.6844 11.0875 18.3926 11.0863C18.1886 11.0856 17.8497 11.0856 17.8497 11.0856L17.1838 13.891ZM20.5647 11.9601C20.5647 12.4186 20.4902 12.8377 20.3412 13.2175C20.1922 13.5976 19.9857 13.9257 19.7218 14.2018C19.4578 14.4783 19.1411 14.6933 18.7718 14.8471C18.4023 15.0009 18.0002 15.0779 17.5656 15.0779C17.3545 15.0779 17.1433 15.0591 16.9323 15.0213L16.5132 16.7262H15.1347L16.7348 9.91611L18.0929 9.91608L18.5716 9.91611C18.9192 9.91611 19.2189 9.96953 19.4703 10.0762C19.7218 10.1831 19.9282 10.329 20.0897 10.5142C20.2511 10.6995 20.3706 10.9162 20.4483 11.1641C20.5258 11.4123 20.5647 11.6775 20.5647 11.9601Z" fill="#002855"/>
</svg>
