<svg width="21" height="24" viewBox="0 0 21 24" fill="none" xmlns="http://www.w3.org/2000/svg">
<path d="M14.2542 19.944C13.4885 19.944 12.8355 19.6734 12.2951 19.1321C11.7547 18.5909 11.4841 17.9383 11.4832 17.1744C11.4823 16.4105 11.753 15.7571 12.2951 15.214C12.8373 14.671 13.4903 14.4008 14.2542 14.4035C15.0181 14.4061 15.6711 14.6767 16.2132 15.2154C16.7554 15.754 17.0256 16.407 17.0238 17.1744C17.0221 17.9418 16.7514 18.5948 16.2119 19.1335C15.6724 19.6721 15.0198 19.9423 14.2542 19.944ZM0 23.8726V2.92024H4.43274V0H5.8431V2.92024H15.2114V0H16.521V2.92024H20.9524V23.8726H0ZM1.30952 22.5631H19.6429V10.2745H1.30952V22.5631ZM1.30952 8.96369H19.6429V4.22976H1.30952V8.96369Z" fill="#0D0D0D"/>
</svg>
