<svg width="32" height="32" viewBox="0 0 32 32" fill="none" xmlns="http://www.w3.org/2000/svg">
<path d="M22.666 18.6668C23.4024 18.6668 23.9993 18.0699 23.9993 17.3335C23.9993 16.5971 23.4024 16.0002 22.666 16.0002C21.9296 16.0002 21.3327 16.5971 21.3327 17.3335C21.3327 18.0699 21.9296 18.6668 22.666 18.6668Z" fill="#999999"/>
<path d="M22.666 24.0002C23.4024 24.0002 23.9993 23.4032 23.9993 22.6668C23.9993 21.9305 23.4024 21.3335 22.666 21.3335C21.9296 21.3335 21.3327 21.9305 21.3327 22.6668C21.3327 23.4032 21.9296 24.0002 22.666 24.0002Z" fill="#999999"/>
<path d="M17.3327 17.3335C17.3327 18.0699 16.7357 18.6668 15.9993 18.6668C15.263 18.6668 14.666 18.0699 14.666 17.3335C14.666 16.5971 15.263 16.0002 15.9993 16.0002C16.7357 16.0002 17.3327 16.5971 17.3327 17.3335Z" fill="#999999"/>
<path d="M17.3327 22.6668C17.3327 23.4032 16.7357 24.0002 15.9993 24.0002C15.263 24.0002 14.666 23.4032 14.666 22.6668C14.666 21.9305 15.263 21.3335 15.9993 21.3335C16.7357 21.3335 17.3327 21.9305 17.3327 22.6668Z" fill="#999999"/>
<path d="M9.33268 18.6668C10.0691 18.6668 10.666 18.0699 10.666 17.3335C10.666 16.5971 10.0691 16.0002 9.33268 16.0002C8.5963 16.0002 7.99935 16.5971 7.99935 17.3335C7.99935 18.0699 8.5963 18.6668 9.33268 18.6668Z" fill="#999999"/>
<path d="M9.33268 24.0002C10.0691 24.0002 10.666 23.4032 10.666 22.6668C10.666 21.9305 10.0691 21.3335 9.33268 21.3335C8.5963 21.3335 7.99935 21.9305 7.99935 22.6668C7.99935 23.4032 8.5963 24.0002 9.33268 24.0002Z" fill="#999999"/>
<path fill-rule="evenodd" clip-rule="evenodd" d="M9.33268 2.3335C9.88497 2.3335 10.3327 2.78121 10.3327 3.3335V4.35046C11.2153 4.33348 12.1878 4.33349 13.2573 4.3335H18.7412C19.8108 4.33349 20.7833 4.33348 21.666 4.35046V3.3335C21.666 2.78121 22.1137 2.3335 22.666 2.3335C23.2183 2.3335 23.666 2.78121 23.666 3.3335V4.43628C24.0126 4.4627 24.3408 4.49592 24.6514 4.53768C26.2146 4.74785 27.4799 5.19067 28.4777 6.18849C29.4755 7.18631 29.9183 8.45157 30.1285 10.0148C30.3327 11.5337 30.3327 13.4746 30.3327 15.9249V18.742C30.3327 21.1924 30.3327 23.1333 30.1285 24.6522C29.9183 26.2154 29.4755 27.4807 28.4777 28.4785C27.4799 29.4763 26.2146 29.9191 24.6514 30.1293C23.1324 30.3335 21.1916 30.3335 18.7413 30.3335H13.2575C10.8071 30.3335 8.86626 30.3335 7.34732 30.1293C5.78409 29.9191 4.51882 29.4763 3.52101 28.4785C2.52319 27.4807 2.08037 26.2154 1.8702 24.6522C1.66598 23.1332 1.666 21.1924 1.66602 18.7421V15.9249C1.666 13.4746 1.66598 11.5338 1.8702 10.0148C2.08037 8.45157 2.52319 7.18631 3.52101 6.18849C4.51882 5.19067 5.78409 4.74785 7.34732 4.53768C7.65789 4.49592 7.98609 4.4627 8.33268 4.43628V3.3335C8.33268 2.78121 8.7804 2.3335 9.33268 2.3335ZM7.61381 6.51984C6.27236 6.7002 5.4995 7.03842 4.93522 7.6027C4.37094 8.16698 4.03272 8.93984 3.85236 10.2813C3.82182 10.5085 3.79628 10.7476 3.77493 11.0002H28.2238C28.2024 10.7476 28.1769 10.5085 28.1463 10.2813C27.966 8.93984 27.6278 8.16698 27.0635 7.6027C26.4992 7.03842 25.7263 6.70019 24.3849 6.51984C23.0147 6.33562 21.2084 6.3335 18.666 6.3335H13.3327C10.7903 6.3335 8.98403 6.33562 7.61381 6.51984ZM3.66602 16.0002C3.66602 14.8615 3.66644 13.8705 3.68346 13.0002H28.3152C28.3323 13.8705 28.3327 14.8615 28.3327 16.0002V18.6668C28.3327 21.2093 28.3306 23.0155 28.1463 24.3857C27.966 25.7271 27.6278 26.5 27.0635 27.0643C26.4992 27.6286 25.7263 27.9668 24.3849 28.1472C23.0147 28.3314 21.2084 28.3335 18.666 28.3335H13.3327C10.7903 28.3335 8.98403 28.3314 7.61381 28.1472C6.27236 27.9668 5.4995 27.6286 4.93522 27.0643C4.37094 26.5 4.03272 25.7271 3.85236 24.3857C3.66814 23.0155 3.66602 21.2093 3.66602 18.6668V16.0002Z" fill="#999999"/>
</svg>
