<svg width="32" height="32" viewBox="0 0 32 32" fill="none" xmlns="http://www.w3.org/2000/svg">
<path d="M20.6242 11.7857V9.82143H16.6956V6.875H14.7313V9.82143H12.767C12.2461 9.82143 11.7464 10.0284 11.3781 10.3968C11.0097 10.7651 10.8027 11.2648 10.8027 11.7857V14.7321C10.8027 15.2531 11.0097 15.7527 11.3781 16.1211C11.7464 16.4895 12.2461 16.6964 12.767 16.6964H18.6599V19.6429H10.8027V21.6071H14.7313V24.5536H16.6956V21.6071H18.6599C19.1808 21.6071 19.6805 21.4002 20.0488 21.0318C20.4172 20.6634 20.6242 20.1638 20.6242 19.6429V16.6964C20.6242 16.1755 20.4172 15.6758 20.0488 15.3075C19.6805 14.9391 19.1808 14.7321 18.6599 14.7321H12.767V11.7857H20.6242Z" fill="#0D0D0D"/>
<path d="M15.7149 3.92864C18.0458 3.92864 20.3245 4.61986 22.2626 5.91489C24.2008 7.20992 25.7114 9.0506 26.6034 11.2042C27.4955 13.3577 27.7289 15.7274 27.2741 18.0136C26.8193 20.2998 25.6969 22.3999 24.0486 24.0481C22.4003 25.6964 20.3003 26.8189 18.0141 27.2736C15.7279 27.7284 13.3582 27.495 11.2047 26.6029C9.0511 25.7109 7.21042 24.2003 5.91539 22.2621C4.62036 20.324 3.92914 18.0453 3.92914 15.7144C3.9382 12.5914 5.18282 9.5989 7.39111 7.39062C9.5994 5.18233 12.5919 3.93771 15.7149 3.92864ZM15.7149 1.96436C12.9954 1.96436 10.3369 2.77078 8.07576 4.28165C5.81458 5.79252 4.05221 7.93997 3.01151 10.4525C1.9708 12.9649 1.69851 15.7296 2.22905 18.3968C2.7596 21.0641 4.06916 23.5141 5.99213 25.4371C7.9151 27.36 10.3651 28.6696 13.0324 29.2002C15.6996 29.7307 18.4643 29.4584 20.9767 28.4177C23.4892 27.377 25.6367 25.6146 27.1476 23.3534C28.6584 21.0923 29.4648 18.4338 29.4648 15.7144C29.4545 12.0708 28.0025 8.57947 25.4261 6.00309C22.8497 3.42671 19.3584 1.97472 15.7149 1.96436Z" fill="#0D0D0D"/>
</svg>
