<svg width="20" height="20" viewBox="0 0 20 20" fill="none" xmlns="http://www.w3.org/2000/svg">
<path fill-rule="evenodd" clip-rule="evenodd" d="M10.4794 2.31443C10.3653 2.28386 10.2452 2.28386 10.1311 2.31443C10.0869 2.32626 10.0128 2.3576 9.86127 2.48393C9.70314 2.61577 9.51175 2.80632 9.21772 3.10035C8.92369 3.39437 8.73315 3.58577 8.6013 3.7439C8.47498 3.8954 8.44363 3.96957 8.4318 4.01374C8.40123 4.12781 8.40123 4.24793 8.4318 4.362C8.44364 4.40617 8.47498 4.48034 8.6013 4.63184C8.73315 4.78997 8.92369 4.98137 9.21772 5.27539L14.7238 10.7815C15.0178 11.0755 15.2092 11.266 15.3673 11.3979C15.5188 11.5242 15.593 11.5556 15.6372 11.5674C15.7513 11.598 15.8714 11.598 15.9854 11.5674C16.0296 11.5556 16.1038 11.5242 16.2553 11.3979C16.4134 11.266 16.6048 11.0755 16.8988 10.7815C17.1929 10.4874 17.3834 10.296 17.5153 10.1379C17.6416 9.98642 17.6729 9.91224 17.6848 9.86808C17.7153 9.754 17.7153 9.63389 17.6848 9.51981C17.6729 9.47565 17.6416 9.40147 17.5153 9.24997C17.3834 9.09184 17.1929 8.90045 16.8988 8.60642L16.2871 7.99464C15.874 7.58162 15.874 6.91199 16.2871 6.49897C16.5879 6.19807 16.7682 6.01592 16.881 5.8681C16.9329 5.80007 16.9544 5.75934 16.9633 5.73804C16.9696 5.72289 16.9693 5.7186 16.9692 5.71753C16.9693 5.71646 16.9696 5.71178 16.9633 5.69663C16.9544 5.67533 16.9329 5.6346 16.881 5.56657C16.7682 5.41875 16.5879 5.2366 16.2871 4.93571L15.0635 3.71213C14.7626 3.41124 14.5804 3.23097 14.4326 3.11818C14.3646 3.06628 14.3239 3.0448 14.3026 3.03592C14.2874 3.0296 14.2831 3.02991 14.282 3.02998C14.282 3.02999 14.2821 3.02998 14.282 3.02998C14.2814 3.02998 14.2775 3.02912 14.2611 3.03592C14.2399 3.0448 14.1991 3.06628 14.1311 3.11818C14.007 3.21285 13.8588 3.35505 13.6364 3.57622L15.0297 4.9695C15.2738 5.21358 15.2738 5.60931 15.0297 5.85338C14.7856 6.09746 14.3899 6.09746 14.1458 5.85338L11.3928 3.10035C11.0987 2.80632 10.9073 2.61577 10.7492 2.48393C10.5977 2.3576 10.5235 2.32626 10.4794 2.31443ZM12.7524 2.69226L12.2575 2.19735C11.988 1.92777 11.7566 1.69635 11.5497 1.52387C11.3313 1.3418 11.0946 1.18519 10.8029 1.10702C10.4769 1.01966 10.1336 1.01966 9.80759 1.10702C9.51586 1.18519 9.27914 1.3418 9.06078 1.52387C8.85391 1.69635 8.62251 1.92777 8.35295 2.19735L8.3147 2.23559C8.04513 2.50515 7.81372 2.73654 7.64124 2.9434C7.45917 3.16177 7.30256 3.39849 7.22439 3.69021C7.13704 4.01624 7.13704 4.35951 7.22439 4.68553C7.30256 4.97725 7.45917 5.21397 7.64124 5.43234C7.81372 5.63919 8.04513 5.87059 8.3147 6.14014L8.80957 6.63502L6.63453 8.81006L6.13965 8.31519C5.8701 8.04562 5.63871 7.81421 5.43185 7.64173C5.21349 7.45966 4.97677 7.30305 4.68504 7.22488C4.35902 7.13753 4.01575 7.13753 3.68973 7.22488C3.398 7.30305 3.16128 7.45966 2.94292 7.64173C2.73605 7.81421 2.50465 8.04563 2.23509 8.31521L2.19686 8.35344C1.92728 8.623 1.69586 8.8544 1.52338 9.06126C1.34131 9.27963 1.1847 9.51635 1.10653 9.80808C1.01918 10.1341 1.01918 10.4774 1.10653 10.8034C1.1847 11.0951 1.34131 11.3318 1.52338 11.5502C1.69586 11.7571 1.92726 11.9884 2.19683 12.258L2.21597 12.2771L2.69177 12.7529C2.46973 12.9758 2.27021 13.1816 2.12392 13.3734C1.9373 13.6179 1.77951 13.9116 1.77951 14.2823C1.77951 14.6531 1.9373 14.9467 2.12392 15.1913C2.29386 15.4141 2.53563 15.6558 2.80109 15.9212L4.07799 17.1981C4.3434 17.4636 4.58512 17.7053 4.80786 17.8753C5.05245 18.0619 5.34606 18.2197 5.71685 18.2197C6.08763 18.2197 6.38125 18.0619 6.62584 17.8753C6.81757 17.729 7.02338 17.5295 7.24626 17.3074L7.74122 17.8024C8.01076 18.0719 8.24214 18.3033 8.44899 18.4758C8.66735 18.6579 8.90407 18.8145 9.1958 18.8927C9.52182 18.98 9.86509 18.98 10.1911 18.8927C10.4828 18.8145 10.7196 18.6579 10.9379 18.4758C11.1448 18.3033 11.3762 18.0719 11.6457 17.8024L11.684 17.7641C11.9536 17.4945 12.185 17.2631 12.3575 17.0563C12.5395 16.8379 12.6961 16.6012 12.7743 16.3095C12.8617 15.9834 12.8617 15.6402 12.7743 15.3142C12.6961 15.0224 12.5395 14.7857 12.3575 14.5673C12.185 14.3605 11.9536 14.1291 11.684 13.8595L11.1891 13.3647L13.3642 11.1896L13.859 11.6845C14.1286 11.9541 14.36 12.1855 14.5669 12.3579C14.7852 12.54 15.0219 12.6966 15.3137 12.7748C15.6397 12.8622 15.983 12.8622 16.309 12.7748C16.6007 12.6966 16.8374 12.54 17.0558 12.3579C17.2626 12.1855 17.494 11.9541 17.7636 11.6845L17.8018 11.6463C18.0714 11.3767 18.3028 11.1453 18.4753 10.9384C18.6574 10.72 18.814 10.4833 18.8922 10.1916C18.9795 9.86558 18.9795 9.52231 18.8922 9.19629C18.814 8.90456 18.6574 8.66784 18.4753 8.44948C18.3028 8.24261 18.0714 8.0112 17.8018 7.74163L17.3069 7.24674C17.529 7.02387 17.7285 6.81806 17.8748 6.62633C18.0614 6.38174 18.2192 6.08812 18.2192 5.71734C18.2192 5.34655 18.0614 5.05294 17.8748 4.80834C17.7048 4.58561 17.4631 4.34389 17.1976 4.07848L15.9207 2.80157C15.6553 2.53611 15.4136 2.29434 15.1908 2.12441C14.9462 1.93779 14.6526 1.78 14.2819 1.78C13.9111 1.78 13.6175 1.93779 13.3729 2.12441C13.1811 2.27069 12.9753 2.47022 12.7524 2.69226ZM17.1709 7.11075C17.1709 7.11067 17.171 7.11083 17.1709 7.11075V7.11075ZM12.4803 10.3057L9.69346 7.5189L7.51841 9.69394L10.3052 12.4808L12.4803 10.3057ZM3.57573 13.6369C3.35457 13.8592 3.21236 14.0075 3.11769 14.1316C3.06579 14.1996 3.04431 14.2403 3.03543 14.2616C3.02911 14.2768 3.02942 14.2811 3.0295 14.2821C3.02942 14.2832 3.02911 14.2879 3.03543 14.303C3.04431 14.3243 3.06579 14.3651 3.11769 14.4331C3.23048 14.5809 3.41075 14.7631 3.71164 15.064L4.93522 16.2875C5.23611 16.5884 5.41826 16.7687 5.56608 16.8815C5.63411 16.9334 5.67485 16.9549 5.69614 16.9638C5.71246 16.9706 5.71618 16.9697 5.71685 16.9697C5.71677 16.9697 5.7169 16.9697 5.71685 16.9697C5.71791 16.9698 5.7224 16.9701 5.73755 16.9638C5.75885 16.9549 5.79958 16.9334 5.86761 16.8815C6.01544 16.7687 6.19759 16.5884 6.49848 16.2875C6.91149 15.8745 7.58113 15.8745 7.99415 16.2875L8.60593 16.8993C8.89996 17.1934 9.09135 17.3839 9.24948 17.5158C9.40099 17.6421 9.47516 17.6734 9.51932 17.6852C9.6334 17.7158 9.75351 17.7158 9.86759 17.6852C9.91175 17.6734 9.98593 17.6421 10.1374 17.5158C10.2956 17.3839 10.487 17.1934 10.781 16.8993C11.075 16.6053 11.2656 16.4139 11.3974 16.2558C11.5237 16.1043 11.5551 16.0301 11.5669 15.9859C11.5975 15.8719 11.5975 15.7518 11.5669 15.6377C11.5551 15.5935 11.5237 15.5193 11.3974 15.3678C11.2656 15.2097 11.075 15.0183 10.781 14.7243L5.27491 9.21821C4.98088 8.92418 4.78948 8.73363 4.63136 8.60179C4.47985 8.47546 4.40568 8.44412 4.36151 8.43229C4.24744 8.40172 4.12733 8.40172 4.01325 8.43229C3.96908 8.44412 3.89491 8.47546 3.74341 8.60179C3.58528 8.73363 3.39388 8.92418 3.09986 9.21821C2.80583 9.51223 2.61528 9.70363 2.48344 9.86176C2.35712 10.0133 2.32577 10.0874 2.31394 10.1316C2.28337 10.2457 2.28337 10.3658 2.31394 10.4799C2.32577 10.524 2.35712 10.5982 2.48344 10.7497C2.61528 10.9078 2.80583 11.0992 3.09986 11.3933L5.8529 14.1463C6.09697 14.3904 6.09697 14.7861 5.8529 15.0302C5.60882 15.2743 5.21309 15.2743 4.96901 15.0302L3.57573 13.6369Z" fill="white"/>
</svg>
