<svg width="20" height="20" viewBox="0 0 20 20" fill="none" xmlns="http://www.w3.org/2000/svg">
<path fill-rule="evenodd" clip-rule="evenodd" d="M11.414 2.5612C11.2553 1.92767 10.6821 1.4585 9.99935 1.4585C9.3166 1.4585 8.74343 1.92768 8.58468 2.56121C8.55741 2.57506 8.53028 2.58934 8.50332 2.60404L4.50813 4.78252C4.43924 4.82008 4.37214 4.86002 4.3069 4.9022C4.13513 4.83108 3.94682 4.79183 3.74935 4.79183C2.94393 4.79183 2.29102 5.44475 2.29102 6.25016C2.29102 6.73021 2.52296 7.15609 2.8809 7.42183C2.87975 7.45651 2.87917 7.49129 2.87917 7.52615V11.6408C2.87917 11.8079 2.8925 11.973 2.91839 12.1349C2.53924 12.3982 2.29102 12.8369 2.29102 13.3335C2.29102 14.1389 2.94393 14.7918 3.74935 14.7918C4.09568 14.7918 4.41381 14.6711 4.66396 14.4694L5.70041 15.0346L4.03632 18.03C3.86869 18.3317 3.9774 18.7122 4.27914 18.8798C4.58088 19.0475 4.96139 18.9388 5.12902 18.637L6.7979 15.633L8.50332 16.563C8.53028 16.5777 8.55741 16.5919 8.58468 16.6058C8.74344 17.2393 9.3166 17.7085 9.99935 17.7085C10.6821 17.7085 11.2553 17.2393 11.414 16.6058C11.4413 16.5919 11.4684 16.5777 11.4954 16.563L13.2008 15.633L14.8697 18.637C15.0373 18.9388 15.4178 19.0475 15.7196 18.8798C16.0213 18.7122 16.13 18.3317 15.9624 18.03L14.2983 15.0346L15.3347 14.4694C15.5849 14.6711 15.903 14.7918 16.2493 14.7918C17.0548 14.7918 17.7077 14.1389 17.7077 13.3335C17.7077 12.8369 17.4595 12.3983 17.0803 12.1349C17.1062 11.973 17.1195 11.8079 17.1195 11.6408V7.52615C17.1195 7.49128 17.119 7.45651 17.1178 7.42182C17.4757 7.15608 17.7077 6.73021 17.7077 6.25016C17.7077 5.44475 17.0548 4.79183 16.2493 4.79183C16.0519 4.79183 15.8636 4.83108 15.6918 4.9022C15.6266 4.86002 15.5595 4.82008 15.4906 4.78252L11.4954 2.60404C11.4684 2.58933 11.4413 2.57506 11.414 2.5612ZM8.86341 3.83144C9.13073 4.16303 9.54027 4.37516 9.99935 4.37516C10.4584 4.37516 10.868 4.16303 11.1353 3.83144L14.8453 5.85444C14.8099 5.98028 14.791 6.11301 14.791 6.25016C14.791 6.92419 15.2483 7.49142 15.8695 7.65855V11.6408C15.8695 11.7391 15.8619 11.8362 15.8469 11.9314C15.2372 12.1061 14.791 12.6677 14.791 13.3335C14.791 13.3364 14.791 13.3393 14.791 13.3422L13.6912 13.9419L11.8152 10.565C12.1136 10.1781 12.291 9.6932 12.291 9.16683C12.291 7.90118 11.265 6.87516 9.99935 6.87516C8.7337 6.87516 7.70768 7.90118 7.70768 9.16683C7.70768 9.6932 7.88515 10.1781 8.18351 10.565L6.30749 13.9419L5.20766 13.3422C5.20767 13.3393 5.20768 13.3364 5.20768 13.3335C5.20768 12.6677 4.76147 12.1061 4.15177 11.9314C4.13685 11.8362 4.12917 11.7391 4.12917 11.6408V7.65854C4.75041 7.49142 5.20768 6.92419 5.20768 6.25016C5.20768 6.11301 5.18875 5.98028 5.15335 5.85445L8.86341 3.83144ZM12.5937 14.5403L10.8014 11.3142C10.5518 11.4075 10.2815 11.4585 9.99935 11.4585C9.71717 11.4585 9.44689 11.4075 9.19725 11.3142L7.40497 14.5403L8.86341 15.3355C9.13073 15.004 9.54026 14.7918 9.99935 14.7918C10.4584 14.7918 10.868 15.004 11.1353 15.3356L12.5937 14.5403ZM8.95768 9.16683C8.95768 8.59153 9.42405 8.12516 9.99935 8.12516C10.5746 8.12516 11.041 8.59153 11.041 9.16683C11.041 9.74213 10.5746 10.2085 9.99935 10.2085C9.42405 10.2085 8.95768 9.74213 8.95768 9.16683Z" fill="white"/>
</svg>
