<svg width="32" height="32" viewBox="0 0 32 32" fill="none" xmlns="http://www.w3.org/2000/svg">
<path fill-rule="evenodd" clip-rule="evenodd" d="M4.33398 13.5242C4.33398 6.9922 9.54067 1.6665 16.0007 1.6665C22.4606 1.6665 27.6673 6.9922 27.6673 13.5242C27.6673 16.6777 26.7686 20.0637 25.1799 22.989C23.5932 25.9107 21.2748 28.4495 18.3747 29.805C16.8681 30.5092 15.1332 30.5092 13.6266 29.805C10.7265 28.4495 8.40814 25.9107 6.82139 22.989C5.23269 20.0637 4.33398 16.6777 4.33398 13.5242ZM16.0007 3.6665C10.6786 3.6665 6.33398 8.06315 6.33398 13.5242C6.33398 16.3203 7.1375 19.3804 8.57892 22.0345C10.0223 24.6922 12.062 26.866 14.4735 27.9932C15.4434 28.4465 16.5579 28.4465 17.5278 27.9932C19.9393 26.866 21.979 24.6922 23.4224 22.0345C24.8638 19.3804 25.6673 16.3203 25.6673 13.5242C25.6673 8.06315 21.3227 3.6665 16.0007 3.6665ZM16.0007 10.3332C14.3438 10.3332 13.0007 11.6763 13.0007 13.3332C13.0007 14.99 14.3438 16.3332 16.0007 16.3332C17.6575 16.3332 19.0007 14.99 19.0007 13.3332C19.0007 11.6763 17.6575 10.3332 16.0007 10.3332ZM11.0007 13.3332C11.0007 10.5717 13.2392 8.33317 16.0007 8.33317C18.7621 8.33317 21.0007 10.5717 21.0007 13.3332C21.0007 16.0946 18.7621 18.3332 16.0007 18.3332C13.2392 18.3332 11.0007 16.0946 11.0007 13.3332Z" fill="#999999"/>
</svg>
