<svg width="20" height="20" viewBox="0 0 20 20" fill="none" xmlns="http://www.w3.org/2000/svg">
<path d="M5.00378 11.1399C5.02773 10.8932 5.2196 10.6393 5.53519 10.5547C5.85078 10.4701 6.1439 10.5941 6.28798 10.7958C6.48865 11.0766 6.879 11.1416 7.15986 10.941C7.44071 10.7403 7.50572 10.3499 7.30506 10.0691C6.84632 9.42702 6.01094 9.13313 5.21167 9.3473C4.41239 9.56146 3.83587 10.2337 3.75963 11.0191C3.72628 11.3626 3.97775 11.6682 4.32132 11.7015C4.66488 11.7349 4.97043 11.4834 5.00378 11.1399Z" fill="white"/>
<path d="M9.8337 9.8455C9.85764 9.59881 10.0495 9.34491 10.3651 9.26035C10.6807 9.17579 10.9738 9.29974 11.1179 9.5014C11.3186 9.78226 11.7089 9.84727 11.9898 9.6466C12.2706 9.44594 12.3356 9.05558 12.135 8.77473C11.6762 8.13267 10.8409 7.83878 10.0416 8.05294C9.24231 8.26711 8.66579 8.93931 8.58954 9.72472C8.55619 10.0683 8.80767 10.3738 9.15123 10.4072C9.49479 10.4405 9.80034 10.1891 9.8337 9.8455Z" fill="white"/>
<path d="M10.9999 13.5256L11.3724 13.0238C11.6495 13.2295 11.7075 13.621 11.5017 13.8981C11.2979 14.1728 10.9118 14.2322 10.6351 14.0331L10.627 14.0279C10.6151 14.0204 10.5916 14.0063 10.5571 13.9885C10.4881 13.953 10.3756 13.9032 10.2228 13.8617C9.92149 13.7799 9.44822 13.7257 8.81806 13.8946C8.18789 14.0634 7.8051 14.347 7.58508 14.5685C7.4735 14.6809 7.40099 14.7802 7.35896 14.8455C7.33796 14.8781 7.32471 14.902 7.31813 14.9145L7.31374 14.9231C7.17362 15.2338 6.80951 15.3754 6.49569 15.2395C6.17894 15.1023 6.03337 14.7343 6.17055 14.4176L6.74408 14.666C6.17055 14.4176 6.17041 14.4179 6.17055 14.4176L6.17112 14.4163L6.17174 14.4149L6.17311 14.4118L6.17639 14.4045L6.18517 14.3856C6.19204 14.3713 6.20098 14.3532 6.21216 14.332C6.23452 14.2896 6.26592 14.2341 6.30783 14.169C6.3916 14.0388 6.51786 13.8692 6.69815 13.6877C7.06184 13.3215 7.63517 12.9174 8.49453 12.6872C9.3539 12.4569 10.0524 12.5201 10.5505 12.6555C10.7974 12.7225 10.9916 12.8063 11.1292 12.8771C11.198 12.9126 11.253 12.9449 11.2935 12.9705C11.3138 12.9832 11.3306 12.9944 11.3437 13.0034L11.3608 13.0153L11.3672 13.02L11.37 13.022L11.3712 13.0229L11.3724 13.0238C11.3727 13.024 11.3724 13.0238 10.9999 13.5256Z" fill="white"/>
<path fill-rule="evenodd" clip-rule="evenodd" d="M11.0431 1.87546L11.0776 1.89164C12.0506 2.3473 12.4879 2.55072 12.9403 2.69434C13.1007 2.74524 13.2626 2.79058 13.4257 2.8303C13.8858 2.94231 14.361 2.99463 15.4217 3.10863L15.4597 3.1127C16.1331 3.18506 16.6932 3.24524 17.1343 3.34616C17.5959 3.45177 18.0129 3.61918 18.3413 3.9646C18.5323 4.16544 18.686 4.39926 18.7962 4.65438C18.9835 5.0879 18.9847 5.541 18.916 6.02016C18.8498 6.4824 18.705 7.04704 18.529 7.73382L17.8158 10.5162C17.2191 12.8442 15.705 14.1378 14.1856 14.8404C13.581 16.1524 12.6324 17.1579 11.8488 17.8268L11.831 17.8419C11.6223 18.0202 11.4171 18.1954 11.1478 18.3493C10.8681 18.5092 10.5444 18.6331 10.0904 18.7603C9.63683 18.8874 9.29634 18.9496 8.97561 18.9574C8.66653 18.9649 8.40274 18.92 8.13681 18.8747L8.11376 18.8708C6.17923 18.5421 3.10386 17.4427 2.18288 13.8495L1.46972 11.0671C1.29368 10.3804 1.14894 9.81573 1.08267 9.35349C1.01398 8.87433 1.01521 8.42124 1.20249 7.98771C1.31269 7.73259 1.46644 7.49878 1.65741 7.29793C1.98582 6.95252 2.40277 6.78511 2.86439 6.6795C3.30551 6.57858 3.86559 6.5184 4.53906 6.44604L4.57697 6.44196C5.00942 6.39548 5.34456 6.35926 5.62103 6.32506L6.14202 4.29241C6.31795 3.60598 6.46268 3.04124 6.62649 2.60598C6.79586 2.15594 7.01546 1.75792 7.39321 1.47419C7.61459 1.30791 7.86403 1.18359 8.12991 1.10822C8.58841 0.978225 9.03388 1.05353 9.4818 1.20257C9.91169 1.34561 10.425 1.58601 11.0431 1.87546ZM16.605 10.2058C16.2616 11.5456 15.5546 12.4566 14.7195 13.0807C14.8438 12.2686 14.818 11.3764 14.57 10.4085L13.7941 7.38179C13.9037 7.33928 14.0027 7.26538 14.0761 7.16253C14.2202 6.96087 14.5133 6.83692 14.8289 6.92148C15.1445 7.00605 15.3364 7.25995 15.3603 7.50663C15.3937 7.85019 15.6992 8.10167 16.0428 8.06832C16.3864 8.03497 16.6378 7.72942 16.6045 7.38585C16.5282 6.60045 15.9517 5.92824 15.1525 5.71408C14.5309 5.54753 13.8875 5.68823 13.4164 6.06098C13.4018 6.01936 13.3871 5.97881 13.3722 5.93931C13.2029 5.48927 12.9833 5.09125 12.6055 4.80752C12.3841 4.64124 12.1347 4.51693 11.8688 4.44155C11.4355 4.31871 11.0139 4.37919 10.5909 4.51199C10.5048 4.47549 10.4152 4.44456 10.3225 4.41973C9.52326 4.20556 8.68788 4.49945 8.22914 5.14151C8.13091 5.279 8.09635 5.44273 8.1196 5.5976C7.66068 5.8072 7.36299 5.93098 7.05839 6.02767C7.0328 6.03579 7.00718 6.04377 6.98152 6.05161L7.34391 4.63776C7.53106 3.90761 7.65955 3.40984 7.79638 3.04626C7.93042 2.69009 8.04229 2.54999 8.14391 2.47366C8.24393 2.39853 8.35477 2.34373 8.47086 2.31082C8.58204 2.2793 8.74516 2.27484 9.08715 2.38864C9.43919 2.50578 9.88601 2.7139 10.5475 3.02366L10.592 3.04451C11.5088 3.47387 12.0227 3.71451 12.5621 3.88576C12.7497 3.94528 12.9391 3.99834 13.13 4.04483C13.6795 4.17861 14.2403 4.23887 15.2394 4.34623L15.2882 4.35147C16.0093 4.42897 16.4951 4.48222 16.8556 4.56468C17.2037 4.64434 17.3477 4.73368 17.4354 4.82591C17.5235 4.91851 17.596 5.02812 17.6487 5.15008C17.7044 5.27893 17.7328 5.46513 17.6787 5.84276C17.6232 6.22958 17.4964 6.72806 17.3093 7.45803L16.605 10.2058ZM10.9116 5.72197C10.5595 5.83911 10.1127 6.04723 9.45124 6.35699L9.40671 6.37785C8.48992 6.80719 7.97605 7.04785 7.43657 7.21909C7.24903 7.27862 7.05964 7.33167 6.86869 7.37816C6.31917 7.51195 5.75844 7.5722 4.75935 7.67956L4.71055 7.6848C3.98941 7.76231 3.50358 7.81556 3.14316 7.89802C2.79499 7.97767 2.65099 8.06701 2.5633 8.15925C2.47526 8.25184 2.40268 8.36146 2.35 8.48341C2.29433 8.61226 2.26588 8.79846 2.32002 9.1761C2.37548 9.56291 2.50234 10.0614 2.68944 10.7914L3.39373 13.5391C4.12852 16.4059 6.55829 17.3386 8.32317 17.6385C8.61371 17.6879 8.76687 17.7121 8.94525 17.7077C9.1209 17.7035 9.34994 17.6696 9.75325 17.5566C10.1562 17.4438 10.3717 17.3532 10.5275 17.2641C10.6863 17.1733 10.8093 17.0706 11.0372 16.876C12.428 15.6889 14.0966 13.5962 13.3591 10.7189L12.6548 7.97109C12.4677 7.24095 12.3392 6.74318 12.2023 6.3796C12.0683 6.02343 11.9564 5.88332 11.8548 5.807C11.7548 5.73187 11.644 5.67706 11.5279 5.64415C11.4167 5.61263 11.2536 5.60818 10.9116 5.72197Z" fill="white"/>
</svg>
