<svg width="68" height="80" viewBox="0 0 68 80" fill="none" xmlns="http://www.w3.org/2000/svg">
<path d="M62.4375 4.79962C56.2031 -1.43476 45.4375 -1.76288 38.875 4.79962C33.875 9.79962 34 16.2371 34 16.2371L34.4219 16.659L0 58.3621L3.59375 61.9559C1.95313 64.1277 1.57813 66.9246 2.64063 69.5027C3.85938 72.4246 6.57813 74.2527 9.75 74.2527H18.625C21.4531 74.2527 23.75 76.5496 23.75 79.3777H26.3125C26.3125 75.1434 22.8594 71.6902 18.625 71.6902H9.75C7.21875 71.6902 5.64063 70.0496 5.01563 68.5184C4.48438 67.2215 4.375 65.3934 5.4375 63.784L8.90625 67.2527L50.5781 32.8152L51 33.2371C51 33.2371 57.7344 33.0652 62.4375 28.3621C68.9375 21.8621 68.9375 11.2996 62.4375 4.79962ZM9.0625 63.7996L3.45313 58.1902L9.07813 51.3777L15.8594 58.159L9.0625 63.7996ZM17.8594 56.5184L10.7344 49.3934L36.2656 18.4871L48.7656 31.0027L17.8594 56.5184ZM52 30.6121L36.6406 15.2527C36.8281 13.2996 37.4219 11.4246 38.3594 9.72149L57.5313 28.8934C55.8438 29.8309 53.9688 30.4246 52 30.6121ZM60.625 26.5496C60.3281 26.8465 60 27.1434 59.6719 27.409L39.8281 7.56524C40.0938 7.23712 40.3906 6.92462 40.6875 6.61212C46.2031 1.09649 55.3594 1.34649 60.625 6.61212C66.125 12.1121 66.125 21.0496 60.625 26.5496Z" fill="white"/>
</svg>
