<svg width="120" height="120" viewBox="0 0 120 120" fill="none" xmlns="http://www.w3.org/2000/svg">
<path d="M63.9237 28.8874C64.2911 28.5518 64.5101 28.0839 64.5325 27.5868C64.5549 27.0897 64.3789 26.604 64.0432 26.2366C63.7076 25.8693 63.2397 25.6503 62.7426 25.6279C62.2455 25.6055 61.7598 25.7814 61.3925 26.1171L39.2337 46.339C38.8663 46.6747 38.6474 47.1425 38.625 47.6396C38.6025 48.1367 38.7785 48.6224 39.1142 48.9898C39.4498 49.3571 39.9177 49.5761 40.4148 49.5985C40.9119 49.6209 41.3976 49.445 41.765 49.1093L63.9237 28.8874Z" fill="url(#paint0_linear_5892_21788)"/>
<path d="M43.9966 34.9801C44.081 34.9801 44.1663 34.9857 44.2507 34.9857C45.6743 34.9838 47.0398 34.4207 48.051 33.4186C49.0623 32.4165 49.6377 31.0561 49.6524 29.6326C49.6672 28.209 49.1202 26.837 48.1301 25.8141C47.1399 24.7912 45.7864 24.1998 44.3631 24.1683C42.9398 24.1368 41.5615 24.6677 40.527 25.6457C39.4925 26.6238 38.8853 27.9703 38.8371 29.3931C38.7889 30.816 39.3035 32.2004 40.2694 33.2463C41.2352 34.2922 42.5745 34.9152 43.9966 34.9801ZM43.1238 28.3492C43.4285 28.0692 43.8275 27.9142 44.2413 27.9151H44.3191C44.6471 27.9304 44.9632 28.0425 45.2274 28.2373C45.4917 28.4322 45.6924 28.7009 45.804 29.0097C45.9156 29.3184 45.9333 29.6533 45.8547 29.9721C45.7762 30.2909 45.6049 30.5792 45.3626 30.8007C45.2028 30.9497 45.0145 31.0647 44.8091 31.1388C44.6036 31.213 44.3853 31.2447 44.1673 31.232C43.8397 31.2166 43.524 31.1045 43.2601 30.9099C42.9961 30.7153 42.7957 30.4469 42.6841 30.1386C42.5725 29.8302 42.5547 29.4957 42.6329 29.1773C42.7112 28.8588 42.882 28.5707 43.1238 28.3492Z" fill="url(#paint1_linear_5892_21788)"/>
<path d="M59.1609 40.2461C57.7384 40.199 56.3545 40.7142 55.3091 41.6801C54.2638 42.6461 53.6411 43.9851 53.576 45.4069C53.5109 46.8287 54.0086 48.219 54.9613 49.2764C55.914 50.3339 57.245 50.9734 58.6659 51.0564C58.7503 51.0602 58.8347 51.0621 58.919 51.0621C60.3291 51.056 61.6812 50.4996 62.6872 49.5115C63.6933 48.5234 64.2739 47.1816 64.3054 45.7719C64.3369 44.3621 63.8169 42.9957 62.856 41.9636C61.8951 40.9315 60.5693 40.3153 59.1609 40.2461ZM60.0328 46.8752C59.8727 47.0237 59.6844 47.1385 59.479 47.2127C59.2737 47.287 59.0555 47.3192 58.8375 47.3074C58.3997 47.294 57.9849 47.1082 57.6835 46.7905C57.3821 46.4727 57.2184 46.0487 57.2282 45.6108C57.238 45.1729 57.4204 44.7567 57.7356 44.4526C58.0509 44.1486 58.4736 43.9815 58.9115 43.9877H58.9893C59.3177 44.0026 59.6343 44.1146 59.899 44.3095C60.1637 44.5045 60.3646 44.7735 60.4763 45.0827C60.588 45.3918 60.6055 45.7271 60.5265 46.0462C60.4476 46.3653 60.2758 46.6538 60.0328 46.8752Z" fill="url(#paint2_linear_5892_21788)"/>
<path d="M114.993 93.0638L112.659 81.1463C112.611 80.9046 112.517 80.6746 112.381 80.4694C112.244 80.2643 112.069 80.088 111.865 79.9506C111.66 79.8132 111.431 79.7174 111.189 79.6688C110.948 79.6201 110.699 79.6195 110.457 79.6669C109.166 79.9198 107.838 79.9159 106.549 79.6555C105.259 79.3951 104.034 78.8833 102.942 78.1492C101.85 77.4152 100.914 76.4733 100.186 75.3773C99.4587 74.2814 98.954 73.0529 98.7012 71.7619C98.4483 70.4709 98.4522 69.1428 98.7126 67.8533C98.973 66.5638 99.4848 65.3383 100.219 64.2466C100.953 63.1549 101.895 62.2185 102.991 61.4909C104.087 60.7632 105.315 60.2585 106.606 60.0057C107.094 59.91 107.524 59.6245 107.801 59.2119C108.079 58.7992 108.181 58.2933 108.086 57.8054L105.749 45.8888C105.702 45.6471 105.608 45.4171 105.471 45.2119C105.335 45.0067 105.16 44.8303 104.956 44.6929C104.751 44.5554 104.522 44.4595 104.281 44.4107C104.039 44.3619 103.791 44.3612 103.549 44.4085L76.5574 49.696L74.8193 45L81.4118 40.4813C81.6511 40.3174 81.8491 40.1001 81.9903 39.8467C82.1314 39.5933 82.2118 39.3105 82.2252 39.0208C82.2385 38.731 82.1845 38.4421 82.0672 38.1767C81.95 37.9114 81.7728 37.6769 81.5496 37.4916L75.3996 32.3869L78.843 25.1747C78.9681 24.913 79.0307 24.6259 79.026 24.3359C79.0213 24.0459 78.9494 23.7609 78.8159 23.5034C78.6825 23.2459 78.4911 23.0229 78.2568 22.8519C78.0225 22.6808 77.7518 22.5665 77.4659 22.5178L69.5909 21.1782L68.9749 13.2188C68.9525 12.9297 68.8633 12.6497 68.7144 12.4009C68.5654 12.152 68.3608 11.9411 68.1165 11.7848C67.8723 11.6284 67.5952 11.5308 67.3068 11.4997C67.0185 11.4686 66.7269 11.5047 66.4549 11.6054L58.9549 14.3794L54.4399 7.78129C54.2759 7.54186 54.0586 7.34376 53.805 7.2026C53.5515 7.06143 53.2686 6.98105 52.9787 6.96778C52.6888 6.95451 52.3998 7.00872 52.1344 7.12613C51.869 7.24355 51.6345 7.42096 51.4493 7.64441L46.354 13.7935L39.1427 10.3463C38.8814 10.2212 38.5946 10.1585 38.3049 10.1629C38.0152 10.1673 37.7304 10.2389 37.473 10.3718C37.2156 10.5048 36.9925 10.6956 36.8212 10.9293C36.6499 11.1631 36.5351 11.4333 36.4859 11.7188L35.1377 19.5938L27.169 20.2125C26.8798 20.2351 26.5998 20.3244 26.351 20.4734C26.1022 20.6225 25.8914 20.8272 25.7351 21.0715C25.5788 21.3159 25.4814 21.5931 25.4504 21.8815C25.4194 22.1699 25.4557 22.4615 25.5565 22.7335L28.3305 30.2232L21.7493 34.755C21.5104 34.9193 21.3128 35.1367 21.1721 35.3902C21.0315 35.6437 20.9515 35.9264 20.9385 36.216C20.9255 36.5057 20.9799 36.7944 21.0973 37.0595C21.2147 37.3246 21.392 37.5588 21.6152 37.7438L27.7615 42.8438L24.3143 50.056C24.1892 50.3177 24.1266 50.6048 24.1313 50.8948C24.136 51.1848 24.2079 51.4698 24.3414 51.7273C24.4749 51.9848 24.6663 52.2078 24.9005 52.3788C25.1348 52.5499 25.4056 52.6642 25.6915 52.7129L33.5665 54.0516L33.8768 58.0622L13.0305 62.1422C12.7889 62.1895 12.5589 62.2839 12.3537 62.42C12.1485 62.5562 11.9721 62.7314 11.8346 62.9358C11.6972 63.1401 11.6013 63.3695 11.5525 63.6109C11.5037 63.8522 11.5029 64.1009 11.5502 64.3425C11.8756 66.0122 11.5253 67.7427 10.5762 69.1544C9.62706 70.5661 8.15671 71.5437 6.48774 71.8725C6.24588 71.9196 6.01567 72.0138 5.81026 72.1499C5.60485 72.2859 5.42827 72.4612 5.29062 72.6655C5.15297 72.8699 5.05694 73.0993 5.00802 73.3408C4.95911 73.5823 4.95827 73.831 5.00555 74.0729L11.0618 104.966C11.1091 105.208 11.2034 105.438 11.3396 105.643C11.4758 105.848 11.651 106.025 11.8553 106.162C12.0597 106.3 12.2891 106.396 12.5304 106.444C12.7718 106.493 13.0204 106.494 13.2621 106.447C14.9332 106.121 16.6651 106.473 18.0772 107.424C19.4893 108.375 20.4661 109.848 20.793 111.518C20.8767 111.945 21.1057 112.329 21.441 112.605C21.7763 112.881 22.1971 113.032 22.6315 113.033C22.7529 113.033 22.8741 113.021 22.9934 112.998L113.516 95.2641C114.004 95.1678 114.433 94.882 114.71 94.4695C114.987 94.0569 115.089 93.5513 114.993 93.0638ZM37.1937 52.2985C37.1614 51.882 36.9909 51.4881 36.7093 51.1795C36.4277 50.8709 36.0511 50.6652 35.6393 50.595L28.7684 49.4269L31.7759 43.1363C31.9554 42.7595 32.0041 42.3337 31.9143 41.9261C31.8244 41.5186 31.6012 41.1526 31.2799 40.8863L25.9165 36.4416L31.6615 32.4938C32.0055 32.2574 32.2609 31.913 32.387 31.5151C32.5132 31.1173 32.503 30.6887 32.358 30.2972L29.9393 23.7666L36.8852 23.2275C37.3015 23.1951 37.6949 23.0247 38.0033 22.7433C38.3117 22.4619 38.5174 22.0856 38.5877 21.6741L39.7643 14.8013L46.0559 17.8088C46.4325 17.9884 46.8583 18.0373 47.2659 17.9476C47.6734 17.8579 48.0394 17.6349 48.3059 17.3138L52.7487 11.9532L56.6862 17.7019C56.9222 18.0466 57.2666 18.3027 57.6647 18.4294C58.0628 18.5561 58.4918 18.5462 58.8837 18.4013L65.4246 15.9807L65.9637 22.9285C65.9962 23.3448 66.1667 23.7384 66.4483 24.0468C66.7299 24.3552 67.1064 24.5608 67.518 24.631L74.389 25.8L71.3824 32.0907C71.2027 32.4672 71.1537 32.8929 71.2432 33.3005C71.3327 33.708 71.5555 34.0741 71.8765 34.3407L77.2399 38.7919L71.4893 42.7294C71.1445 42.9656 70.8885 43.3102 70.762 43.7085C70.6355 44.1068 70.6456 44.536 70.7909 44.9278L72.8271 50.4244L48.3349 55.2254H48.3106C48.3029 55.2271 48.2954 55.2293 48.288 55.2319L37.5837 57.3319L37.1937 52.2985ZM14.493 102.576H14.4115L9.01336 75.0216C10.9141 74.2606 12.5416 72.9449 13.6841 71.2458C14.8265 69.5467 15.4308 67.543 15.4184 65.4957L47.1921 59.2707L55.7121 102.771L23.9393 108.995C23.1848 107.105 21.8821 105.483 20.1987 104.339C18.5153 103.195 16.5283 102.581 14.493 102.576ZM59.3927 102.045L50.8718 58.5497L102.434 48.4491L104.072 56.8107C100.925 57.8887 98.2746 60.0696 96.6108 62.9503C94.9471 65.8309 94.3825 69.2166 95.0214 72.4812C95.6603 75.7459 97.4595 78.6689 100.087 80.7099C102.713 82.7508 105.99 83.7717 109.312 83.5838L110.95 91.9444L59.3927 102.045Z" fill="url(#paint3_linear_5892_21788)"/>
<path d="M85.9849 62.238C85.8893 61.75 85.6037 61.3201 85.1911 61.0426C84.7785 60.7652 84.2726 60.663 83.7846 60.7586L61.9184 65.042C61.4609 65.1313 61.0531 65.3877 60.7744 65.7612C60.4958 66.1348 60.3662 66.5988 60.411 67.0627C60.4559 67.5266 60.6719 67.9572 61.0169 68.2705C61.362 68.5838 61.8113 68.7574 62.2774 68.7573C62.3989 68.7573 62.52 68.7457 62.6393 68.7227L84.5046 64.4383C84.7463 64.391 84.9763 64.2966 85.1815 64.1605C85.3867 64.0243 85.5631 63.8491 85.7005 63.6447C85.838 63.4404 85.9339 63.211 85.9827 62.9696C86.0314 62.7283 86.0322 62.4796 85.9849 62.238Z" fill="url(#paint4_linear_5892_21788)"/>
<path d="M88.2505 73.8092C88.2033 73.5675 88.1089 73.3375 87.9727 73.1323C87.8366 72.9271 87.6613 72.7507 87.457 72.6132C87.2527 72.4758 87.0233 72.3799 86.7819 72.3311C86.5405 72.2823 86.2919 72.2816 86.0502 72.3289L64.184 76.6132C63.7265 76.7025 63.3187 76.9589 63.04 77.3325C62.7614 77.706 62.6318 78.17 62.6767 78.6339C62.7215 79.0978 62.9375 79.5284 63.2826 79.8417C63.6276 80.155 64.077 80.3286 64.543 80.3285C64.6645 80.3287 64.7858 80.3168 64.9049 80.2929L86.7702 76.0095C87.0119 75.9622 87.2419 75.8678 87.4471 75.7317C87.6523 75.5955 87.8287 75.4203 87.9662 75.216C88.1036 75.0116 88.1995 74.7822 88.2483 74.5409C88.2971 74.2995 88.2978 74.0509 88.2505 73.8092Z" fill="url(#paint5_linear_5892_21788)"/>
<path d="M88.3168 83.9063L66.4506 88.1841C65.9921 88.2723 65.5829 88.5283 65.3033 88.9022C65.0236 89.2761 64.8935 89.7409 64.9384 90.2057C64.9833 90.6704 65.2 91.1017 65.5461 91.4151C65.8921 91.7285 66.3427 91.9016 66.8096 91.9003C66.9311 91.9004 67.0524 91.8885 67.1715 91.8647L89.0368 87.5813C89.2819 87.5376 89.5157 87.4456 89.7248 87.3106C89.9339 87.1756 90.1141 87.0003 90.2547 86.795C90.3954 86.5897 90.4937 86.3584 90.5441 86.1146C90.5944 85.8709 90.5958 85.6196 90.548 85.3753C90.5002 85.131 90.4042 84.8987 90.2657 84.692C90.1272 84.4852 89.9489 84.308 89.7413 84.1708C89.5336 84.0337 89.3007 83.9392 89.0561 83.893C88.8116 83.8467 88.5602 83.8497 88.3168 83.9016V83.9063Z" fill="url(#paint6_linear_5892_21788)"/>
<path d="M43.0239 88.154C42.6726 86.377 41.6704 84.7953 40.2137 83.7189C38.7569 82.6424 36.9506 82.1489 35.1489 82.3349L33.7942 75.419L34.6033 75.2605C35.1327 75.1575 35.6813 75.2688 36.1288 75.5699C36.5763 75.8709 36.8861 76.3373 36.9901 76.8665L37.0173 77.0043C37.1131 77.4924 37.3987 77.9224 37.8116 78.1999C38.2244 78.4773 38.7305 78.5794 39.2186 78.4837C39.7067 78.3879 40.1367 78.1022 40.4142 77.6894C40.6916 77.2766 40.7937 76.7705 40.6979 76.2824L40.6708 76.1455C40.3738 74.6411 39.4925 73.3158 38.22 72.4601C36.9475 71.6045 35.3876 71.2883 33.8823 71.5808L33.0733 71.7393L32.7123 69.8962C32.665 69.6545 32.5705 69.4245 32.4343 69.2193C32.2981 69.0142 32.1228 68.8379 31.9184 68.7004C31.7141 68.563 31.4846 68.4672 31.2432 68.4185C31.0018 68.3697 30.7532 68.369 30.5115 68.4163C30.0235 68.5119 29.5934 68.7975 29.3158 69.2102C29.0383 69.623 28.9361 70.129 29.0317 70.6171L29.3992 72.4921C27.659 72.9975 26.171 74.1358 25.2279 75.6832C24.2848 77.2305 23.9549 79.0748 24.3033 80.8531C24.6516 82.6314 25.6529 84.2149 27.11 85.2921C28.5672 86.3693 30.3747 86.8622 32.177 86.6737L33.5317 93.5877L32.7189 93.7499C32.4568 93.8013 32.1871 93.8006 31.9253 93.7477C31.6634 93.6949 31.4146 93.5909 31.1929 93.4419C30.9713 93.2928 30.7812 93.1016 30.6335 92.8791C30.4857 92.6565 30.3833 92.407 30.332 92.1449C30.2867 91.9014 30.1935 91.6692 30.0579 91.4619C29.9223 91.2545 29.7469 91.0761 29.542 90.937C29.337 90.7978 29.1065 90.7006 28.8637 90.6511C28.621 90.6015 28.3709 90.6006 28.1277 90.6483C27.8846 90.6959 27.6534 90.7913 27.4474 90.9289C27.2413 91.0665 27.0646 91.2436 26.9274 91.4499C26.7903 91.6562 26.6953 91.8876 26.6481 92.1308C26.6009 92.374 26.6023 92.6241 26.6523 92.8668C26.7978 93.6124 27.0888 94.322 27.5087 94.9551C27.9287 95.5881 28.4694 96.1322 29.0998 96.556C29.7302 96.9799 30.438 97.2753 31.1827 97.4254C31.9274 97.5755 32.6944 97.5772 33.4398 97.4305L34.2489 97.2721L34.6098 99.1143C34.6933 99.5407 34.9222 99.9249 35.2575 100.201C35.5929 100.478 36.0137 100.629 36.4483 100.629C36.57 100.629 36.6915 100.618 36.8111 100.595C37.299 100.499 37.729 100.213 38.0064 99.8008C38.2838 99.3882 38.386 98.8822 38.2904 98.3943L37.9229 96.5193C39.6635 96.0126 41.1518 94.8736 42.0956 93.3258C43.0394 91.778 43.3705 89.9334 43.0239 88.154ZM29.4686 82.3677C28.9386 82.0123 28.5158 81.5189 28.2457 80.9408C27.9756 80.3626 27.8686 79.7217 27.9361 79.0872C28.0037 78.4526 28.2432 77.8486 28.629 77.3403C29.0147 76.8319 29.5319 76.4386 30.1248 76.2027L31.4486 82.9621C30.7436 82.9691 30.0531 82.7618 29.4686 82.3677ZM37.2001 92.8021L35.8764 86.0521C36.6916 86.0471 37.483 86.3267 38.1141 86.8428C38.7452 87.3588 39.1763 88.079 39.3332 88.879C39.4901 89.679 39.3629 90.5086 38.9734 91.2248C38.584 91.941 37.9569 92.4989 37.2001 92.8021Z" fill="url(#paint7_linear_5892_21788)"/>
<defs>
<linearGradient id="paint0_linear_5892_21788" x1="51.5787" y1="25.626" x2="51.5787" y2="49.6004" gradientUnits="userSpaceOnUse">
<stop stop-color="#D7498E"/>
<stop offset="1" stop-color="#D7498E" stop-opacity="0.6"/>
</linearGradient>
<linearGradient id="paint1_linear_5892_21788" x1="44.2434" y1="24.167" x2="44.2434" y2="34.9857" gradientUnits="userSpaceOnUse">
<stop stop-color="#D7498E"/>
<stop offset="1" stop-color="#D7498E" stop-opacity="0.6"/>
</linearGradient>
<linearGradient id="paint2_linear_5892_21788" x1="58.9385" y1="40.2432" x2="58.9385" y2="51.0621" gradientUnits="userSpaceOnUse">
<stop stop-color="#D7498E"/>
<stop offset="1" stop-color="#D7498E" stop-opacity="0.6"/>
</linearGradient>
<linearGradient id="paint3_linear_5892_21788" x1="59.9994" y1="6.96582" x2="59.9994" y2="113.033" gradientUnits="userSpaceOnUse">
<stop stop-color="#D7498E"/>
<stop offset="1" stop-color="#D7498E" stop-opacity="0.6"/>
</linearGradient>
<linearGradient id="paint4_linear_5892_21788" x1="73.2111" y1="60.7236" x2="73.2111" y2="68.7573" gradientUnits="userSpaceOnUse">
<stop stop-color="#D7498E"/>
<stop offset="1" stop-color="#D7498E" stop-opacity="0.6"/>
</linearGradient>
<linearGradient id="paint5_linear_5892_21788" x1="75.4767" y1="72.2939" x2="75.4767" y2="80.3285" gradientUnits="userSpaceOnUse">
<stop stop-color="#D7498E"/>
<stop offset="1" stop-color="#D7498E" stop-opacity="0.6"/>
</linearGradient>
<linearGradient id="paint6_linear_5892_21788" x1="77.7563" y1="83.8604" x2="77.7563" y2="91.9003" gradientUnits="userSpaceOnUse">
<stop stop-color="#D7498E"/>
<stop offset="1" stop-color="#D7498E" stop-opacity="0.6"/>
</linearGradient>
<linearGradient id="paint7_linear_5892_21788" x1="33.663" y1="68.3813" x2="33.663" y2="100.629" gradientUnits="userSpaceOnUse">
<stop stop-color="#D7498E"/>
<stop offset="1" stop-color="#D7498E" stop-opacity="0.6"/>
</linearGradient>
</defs>
</svg>
