<svg width="32" height="32" viewBox="0 0 32 32" fill="none" xmlns="http://www.w3.org/2000/svg">
<g clip-path="url(#clip0_11324_30794)">
<path fill-rule="evenodd" clip-rule="evenodd" d="M27.6891 7.16591L28.3357 9.57805C28.4218 9.89997 28.4166 10.2395 28.3208 10.5586C28.2249 10.8778 28.0422 11.164 27.793 11.3852L27.706 11.4582C27.2776 11.7923 26.9554 12.2436 26.7786 12.7573C26.6017 13.271 26.5777 13.825 26.7094 14.352C26.8412 14.8791 27.1232 15.3565 27.521 15.7265C27.9189 16.0965 28.4156 16.343 28.9508 16.4362L29.072 16.4547C29.4111 16.4991 29.7293 16.643 29.9866 16.8683C30.2438 17.0936 30.4285 17.3901 30.5172 17.7203L31.1755 20.1762C31.2519 20.461 31.2714 20.758 31.233 21.0504C31.1946 21.3427 31.0989 21.6246 30.9515 21.88C30.8042 22.1354 30.6079 22.3592 30.374 22.5387C30.1401 22.7182 29.8731 22.8499 29.5883 22.9262L6.81945 29.0267C6.24439 29.1806 5.63174 29.0999 5.11624 28.8021C4.60074 28.5044 4.22461 28.0141 4.07058 27.439L3.45155 25.1285C3.35961 24.7846 3.36312 24.4221 3.46171 24.0801C3.5603 23.7381 3.75023 23.4294 4.01109 23.1872L4.10257 23.1086C4.52198 22.7664 4.83351 22.3103 4.99961 21.7951C5.1657 21.2799 5.17929 20.7277 5.03871 20.205C4.89814 19.6823 4.60942 19.2113 4.20733 18.849C3.80524 18.4866 3.30694 18.2482 2.77246 18.1625C2.40281 18.1029 2.05829 17.9377 1.78038 17.6868C1.50247 17.4358 1.30303 17.1099 1.20609 16.7483L0.584249 14.4287C0.507962 14.1439 0.488531 13.8468 0.527067 13.5545C0.565603 13.2622 0.66135 12.9803 0.80884 12.725C0.95633 12.4697 1.15267 12.2459 1.38666 12.0665C1.62064 11.8871 1.88767 11.7555 2.17251 11.6793L24.9397 5.57877C25.2245 5.50238 25.5215 5.48284 25.8139 5.52126C26.1062 5.55968 26.3881 5.65532 26.6435 5.8027C26.8988 5.95009 27.1227 6.14633 27.3022 6.38024C27.4817 6.61414 27.6134 6.88111 27.6897 7.16591M25.3522 7.50658L2.7792 13.5549C2.46772 13.6385 2.28251 13.959 2.36614 14.2705L2.81007 15.9277C3.77006 16.1212 4.65697 16.5788 5.37089 17.2491C6.08482 17.9194 6.5974 18.7757 6.85088 19.7216C7.10441 20.6676 7.08874 21.6655 6.80565 22.6031C6.52256 23.5406 5.98328 24.3805 5.24859 25.028L5.69252 26.6853C5.7767 26.9968 6.0966 27.182 6.40808 27.0984L28.9805 21.05C29.292 20.9664 29.4772 20.646 29.3936 20.3345L28.9502 18.6777C27.9902 18.4843 27.1032 18.0266 26.3893 17.3562C25.6753 16.6858 25.1628 15.8293 24.9094 14.8833C24.6558 13.9374 24.6714 12.9395 24.9544 12.002C25.2374 11.0644 25.7765 10.2245 26.5111 9.57693L26.0672 7.91964C26.0474 7.84549 26.0132 7.77598 25.9665 7.71508C25.9198 7.65417 25.8616 7.60308 25.7951 7.56471C25.7286 7.52634 25.6553 7.50146 25.5792 7.49148C25.5031 7.48151 25.4263 7.48664 25.3522 7.50658ZM24.6316 19.606C24.6888 19.8196 24.7034 20.0424 24.6745 20.2616C24.6456 20.4808 24.5738 20.6922 24.4632 20.8836C24.3526 21.0751 24.2054 21.2429 24.0299 21.3775C23.8545 21.5121 23.6543 21.6108 23.4407 21.668C23.2271 21.7251 23.0043 21.7397 22.7851 21.7108C22.5659 21.6819 22.3545 21.6101 22.1631 21.4995C21.9716 21.3889 21.8038 21.2417 21.6692 21.0663C21.5346 20.8908 21.4359 20.6906 21.3787 20.477C21.2632 20.0457 21.3238 19.5861 21.5472 19.1994C21.7705 18.8127 22.1383 18.5306 22.5697 18.4151C23.001 18.2996 23.4606 18.3602 23.8473 18.5835C24.234 18.8069 24.5161 19.1747 24.6316 19.606ZM23.4699 15.2689C23.5854 15.7002 23.5249 16.1598 23.3016 16.5466C23.0784 16.9333 22.7106 17.2155 22.2792 17.3311C21.8479 17.4467 21.3883 17.3862 21.0015 17.1629C20.6148 16.9396 20.3326 16.5718 20.217 16.1405C20.108 15.7114 20.1724 15.2566 20.3963 14.8746C20.6201 14.4927 20.9854 14.2143 21.413 14.0997C21.8407 13.9851 22.2962 14.0435 22.6811 14.2623C23.0659 14.4812 23.3497 14.8428 23.4699 15.2689ZM22.307 10.9323C22.3642 11.1459 22.3788 11.3686 22.35 11.5879C22.3211 11.8071 22.2493 12.0185 22.1388 12.21C22.0282 12.4015 21.881 12.5693 21.7056 12.7039C21.5302 12.8385 21.33 12.9373 21.1164 12.9945C20.9028 13.0517 20.68 13.0663 20.4608 13.0375C20.2416 13.0086 20.0302 12.9369 19.8387 12.8263C19.6472 12.7157 19.4793 12.5685 19.3447 12.3931C19.2101 12.2177 19.1114 12.0175 19.0541 11.8039C18.9386 11.3725 18.9991 10.9129 19.2224 10.5262C19.4457 10.1394 19.8134 9.85723 20.2448 9.74165C20.6761 9.62607 21.1357 9.68658 21.5225 9.90987C21.9092 10.1332 22.1914 10.5009 22.307 10.9323ZM16.491 3.56229L17.9233 5.60739C17.9442 5.6377 17.9643 5.66838 17.9833 5.69943L4.28104 9.37096L13.3645 3.01061C13.8522 2.66931 14.4555 2.5357 15.0417 2.63915C15.6279 2.74261 16.1496 3.07466 16.491 3.56229Z" fill="#0D0D0D"/>
</g>
<defs>
<clipPath id="clip0_11324_30794">
<rect width="31.4286" height="31.4286" fill="white"/>
</clipPath>
</defs>
</svg>
