<svg width="24" height="16" viewBox="0 0 24 16" fill="none" xmlns="http://www.w3.org/2000/svg">
<g clip-path="url(#clip0_11180_7856)">
<path fill-rule="evenodd" clip-rule="evenodd" d="M0 0H34.2V1.23125H0V0ZM0 2.4625H34.2V3.69375H0V2.4625ZM0 4.92188H34.2V6.15625H0V4.92188ZM0 7.38438H34.2V8.61563H0V7.38438ZM0 9.84688H34.2V11.0781H0V9.84688ZM0 12.3063H34.2V13.5375H0V12.3063ZM0 14.7688H34.2V16H0V14.7688Z" fill="#BD3D44"/>
<path fill-rule="evenodd" clip-rule="evenodd" d="M0 1.23145H34.2V2.4627H0V1.23145ZM0 3.69395H34.2V4.92207H0V3.69395ZM0 6.15332H34.2V7.38457H0V6.15332ZM0 8.61582H34.2V9.84707H0V8.61582ZM0 11.0783H34.2V12.3096H0V11.0783ZM0 13.5377H34.2V14.7689H0V13.5377Z" fill="white"/>
<path fill-rule="evenodd" clip-rule="evenodd" d="M0 0H13.6793V8.61563H0V0Z" fill="#192F5D"/>
<path fill-rule="evenodd" clip-rule="evenodd" d="M1.13867 0.368652L1.26523 0.709277H1.66602L1.34258 0.918652L1.46563 1.2624L1.13867 1.0499L0.815234 1.25928L0.938281 0.918652L0.611328 0.709277H1.01914L1.13867 0.368652ZM3.42031 0.368652L3.54336 0.709277H3.94766L3.6207 0.918652L3.74375 1.2624L3.42031 1.0499L3.09336 1.25928L3.21641 0.918652L2.89297 0.709277H3.29375L3.42031 0.368652ZM5.69844 0.368652L5.825 0.709277H6.22227L5.89883 0.918652L6.02188 1.2624L5.69492 1.0499L5.37148 1.25928L5.49453 0.918652L5.16758 0.709277H5.57188L5.69844 0.368652ZM7.98008 0.368652L8.10313 0.709277H8.50742L8.18047 0.918652L8.30703 1.2624L7.98008 1.0499L7.65313 1.25928L7.77969 0.918652L7.45273 0.709277H7.85352L7.98008 0.368652ZM10.2582 0.368652L10.3848 0.709277H10.7855L10.4621 0.918652L10.5852 1.2624L10.2582 1.0499L9.93477 1.25928L10.0578 0.918652L9.73438 0.709277H10.1352L10.2582 0.368652ZM12.5398 0.368652L12.6629 0.709277H13.0672L12.7402 0.918652L12.8668 1.2624L12.5398 1.0499L12.2129 1.25928L12.3395 0.918652L12.0125 0.709277H12.4168L12.5398 0.368652ZM2.28125 1.23115L2.4043 1.57178H2.80859L2.48164 1.78115L2.60117 2.12178L2.28477 1.9124L1.95781 2.12178L2.07383 1.78115L1.75742 1.57178H2.1582L2.28125 1.23115ZM4.55937 1.23115L4.68594 1.57178H5.08672L4.75977 1.78115L4.88633 2.12178L4.55937 1.9124L4.23242 2.12178L4.35898 1.78115L4.03203 1.57178H4.43633L4.55937 1.23115ZM6.84102 1.23115L6.96406 1.57178H7.36836L7.04141 1.78115L7.16445 2.12178L6.84102 1.9124L6.51406 2.12178L6.63711 1.78115L6.31367 1.57178H6.71445L6.84102 1.23115ZM9.11914 1.23115L9.2457 1.57178H9.64648L9.31953 1.78115L9.44609 2.12178L9.11914 1.9124L8.7957 2.12178L8.91875 1.78115L8.5918 1.57178H8.99961L9.11914 1.23115ZM11.4008 1.23115L11.5238 1.57178H11.9281L11.6012 1.78115L11.7242 2.12178L11.4008 1.9124L11.0738 2.12178L11.1969 1.78115L10.8734 1.57178H11.2742L11.4008 1.23115ZM1.13867 2.09053L1.26523 2.4374H1.66602L1.34258 2.64678L1.46563 2.9874L1.13867 2.7749L0.815234 2.9874L0.938281 2.64365L0.611328 2.43428H1.01914L1.13867 2.09053ZM3.42031 2.09053L3.54336 2.43428H3.94766L3.6207 2.64365L3.74375 2.98428L3.42031 2.77178L3.09336 2.98428L3.21641 2.64053L2.89297 2.43115H3.29375L3.42031 2.09053ZM5.69844 2.09053L5.825 2.43428H6.22227L5.89883 2.64365L6.02188 2.98428L5.69492 2.77178L5.37148 2.98428L5.49453 2.64053L5.16758 2.43115H5.57188L5.69844 2.09053ZM7.98008 2.09053L8.10313 2.43428H8.50742L8.18047 2.64365L8.30703 2.98428L7.98008 2.77178L7.65313 2.98428L7.77969 2.64053L7.45273 2.43115H7.85352L7.98008 2.09053ZM10.2582 2.09053L10.3848 2.43428H10.7855L10.4621 2.64365L10.5852 2.98428L10.2582 2.77178L9.93477 2.98428L10.0578 2.64053L9.73438 2.43115H10.1352L10.2582 2.09053ZM12.5398 2.09053L12.6629 2.43428H13.0672L12.7402 2.64365L12.8668 2.98428L12.5398 2.77178L12.2129 2.98428L12.3395 2.64053L12.0125 2.43115H12.4168L12.5398 2.09053ZM2.28125 2.95303L2.4043 3.29365H2.80859L2.48164 3.50303L2.60469 3.84678L2.28125 3.63428L1.9543 3.84365L2.07734 3.50303L1.75391 3.29365H2.15469L2.28125 2.95303ZM4.55937 2.95303L4.68594 3.29365H5.08672L4.75977 3.50303L4.88633 3.84678L4.55937 3.63428L4.23242 3.84365L4.35898 3.50303L4.03203 3.29365H4.43633L4.55937 2.95303ZM6.84102 2.95303L6.96406 3.29365H7.36836L7.04141 3.50303L7.16445 3.84678L6.84102 3.63428L6.51406 3.84365L6.63711 3.50303L6.31367 3.29365H6.71445L6.84102 2.95303ZM9.11914 2.95303L9.2457 3.29365H9.64648L9.32305 3.50303L9.44609 3.84678L9.11914 3.63428L8.7957 3.84365L8.91875 3.50303L8.5918 3.29365H8.99961L9.11914 2.95303ZM11.4008 2.95303L11.5238 3.29365H11.9281L11.6012 3.50303L11.7242 3.84678L11.4008 3.63428L11.0738 3.84365L11.1969 3.50303L10.8734 3.29365H11.2742L11.4008 2.95303ZM1.13867 3.81553L1.26523 4.15615H1.66602L1.34258 4.36553L1.46563 4.70928L1.13867 4.49678L0.815234 4.70615L0.938281 4.36553L0.611328 4.15615H1.01914L1.13867 3.81553ZM3.42031 3.81553L3.54336 4.15615H3.94766L3.6207 4.36553L3.74375 4.70615L3.42031 4.49678L3.09336 4.70615L3.21641 4.36553L2.89297 4.15615H3.29375L3.42031 3.81553ZM5.69844 3.81553L5.825 4.15615H6.22227L5.89883 4.36553L6.02188 4.70928L5.69492 4.49678L5.37148 4.70615L5.49453 4.36553L5.16758 4.15615H5.57188L5.69844 3.81553ZM7.98008 3.81553L8.10313 4.15615H8.50742L8.18047 4.36553L8.30703 4.70928L7.98008 4.49678L7.65313 4.70615L7.77969 4.36553L7.45273 4.15615H7.85352L7.98008 3.81553ZM10.2582 3.81553L10.3848 4.15615H10.7855L10.4621 4.36553L10.5852 4.70928L10.2582 4.49678L9.93477 4.70615L10.0578 4.36553L9.73438 4.15615H10.1352L10.2582 3.81553ZM12.5398 3.81553L12.6629 4.15615H13.0672L12.7402 4.36553L12.8668 4.70928L12.5398 4.49678L12.2129 4.70615L12.3395 4.36553L12.0125 4.15615H12.4168L12.5398 3.81553ZM2.28125 4.67803L2.4043 5.01865H2.80859L2.48164 5.22803L2.60469 5.56865L2.28125 5.35615L1.9543 5.56865L2.07734 5.2249L1.75391 5.01553H2.15469L2.28125 4.67803ZM4.55937 4.67803L4.68594 5.01865H5.08672L4.75977 5.22803L4.88633 5.56865L4.55937 5.35615L4.23242 5.56865L4.35898 5.2249L4.03203 5.01553H4.43633L4.55937 4.67803ZM6.84102 4.67803L6.96406 5.01865H7.36836L7.04141 5.22803L7.16445 5.56865L6.84102 5.35615L6.51406 5.56865L6.63711 5.2249L6.31367 5.01553H6.71445L6.84102 4.67803ZM9.11914 4.67803L9.2457 5.01865H9.64648L9.32305 5.22803L9.44609 5.56865L9.11914 5.35615L8.7957 5.56865L8.91875 5.2249L8.5918 5.01553H8.99961L9.11914 4.67803ZM11.4008 4.67803L11.5238 5.01865H11.9281L11.6012 5.22803L11.7242 5.56865L11.4008 5.35615L11.0738 5.56865L11.1969 5.2249L10.8734 5.01553H11.2742L11.4008 4.67803ZM1.13867 5.5374L1.26523 5.88115H1.66602L1.34258 6.09053L1.46563 6.42803L1.13867 6.21865L0.815234 6.42803L0.938281 6.0874L0.611328 5.87803H1.01914L1.13867 5.5374ZM3.42031 5.5374L3.54336 5.88115H3.94766L3.6207 6.09053L3.74727 6.42803L3.42031 6.21865L3.09336 6.42803L3.21992 6.0874L2.89297 5.87803H3.29375L3.42031 5.5374ZM5.69844 5.5374L5.825 5.88115H6.22227L5.89883 6.09053L6.02188 6.42803L5.69492 6.21865L5.37148 6.42803L5.49453 6.0874L5.16758 5.87803H5.57188L5.69844 5.5374ZM7.98008 5.5374L8.10313 5.88115H8.50742L8.18047 6.09053L8.30703 6.42803L7.98008 6.21865L7.65313 6.42803L7.77969 6.0874L7.45273 5.87803H7.85352L7.98008 5.5374ZM10.2582 5.5374L10.3848 5.88115H10.7855L10.4621 6.09053L10.5852 6.42803L10.2582 6.21865L9.93477 6.42803L10.0578 6.0874L9.73438 5.87803H10.1352L10.2582 5.5374ZM12.5398 5.5374L12.6629 5.88115H13.0672L12.7402 6.09053L12.8668 6.42803L12.5398 6.21865L12.2129 6.42803L12.3395 6.0874L12.0125 5.87803H12.4168L12.5398 5.5374ZM2.28125 6.3999L2.4043 6.74053H2.80859L2.48164 6.9499L2.60469 7.29365L2.28125 7.08115L1.9543 7.29053L2.07734 6.9499L1.75391 6.74053H2.15469L2.28125 6.3999ZM4.55937 6.3999L4.68594 6.74053H5.08672L4.75977 6.9499L4.88633 7.29365L4.55937 7.08115L4.23242 7.29053L4.35898 6.9499L4.03203 6.74053H4.43633L4.55937 6.3999ZM6.84102 6.3999L6.96406 6.74053H7.36836L7.04141 6.9499L7.16445 7.29365L6.84102 7.08115L6.51406 7.29053L6.63711 6.9499L6.31367 6.74053H6.71445L6.84102 6.3999ZM9.11914 6.3999L9.2457 6.74053H9.64648L9.32305 6.9499L9.44609 7.29365L9.11914 7.08115L8.7957 7.29053L8.91875 6.9499L8.5918 6.74053H8.99961L9.11914 6.3999ZM11.4008 6.3999L11.5238 6.74053H11.9281L11.6012 6.9499L11.7242 7.29365L11.4008 7.08115L11.0738 7.29053L11.1969 6.9499L10.8734 6.74053H11.2742L11.4008 6.3999ZM1.13867 7.2624L1.26523 7.60303H1.66602L1.34258 7.8124L1.46563 8.15303L1.13867 7.94365L0.815234 8.15303L0.938281 7.80928L0.611328 7.5999H1.01914L1.13867 7.2624ZM3.42031 7.2624L3.54336 7.60303H3.94766L3.6207 7.8124L3.74727 8.15303L3.42031 7.94365L3.09336 8.15303L3.21992 7.80928L2.89297 7.5999H3.29375L3.42031 7.2624ZM5.69844 7.2624L5.825 7.60303H6.22227L5.90586 7.8124L6.02891 8.15303L5.70195 7.94365L5.37852 8.15303L5.50156 7.80928L5.17461 7.5999H5.57891L5.69844 7.2624ZM7.98008 7.2624L8.10313 7.60303H8.50742L8.18047 7.8124L8.30703 8.15303L7.98008 7.94365L7.65313 8.15303L7.77969 7.80928L7.45273 7.5999H7.85352L7.98008 7.2624ZM10.2582 7.2624L10.3848 7.60303H10.7855L10.4621 7.8124L10.5852 8.15303L10.2582 7.94365L9.93477 8.15303L10.0578 7.80928L9.73438 7.5999H10.1352L10.2582 7.2624ZM12.5398 7.2624L12.6629 7.60303H13.0672L12.7402 7.8124L12.8668 8.15303L12.5398 7.94365L12.2129 8.15303L12.3395 7.80928L12.0125 7.5999H12.4168L12.5398 7.2624Z" fill="white"/>
</g>
<defs>
<clipPath id="clip0_11180_7856">
<rect width="24" height="16" fill="white"/>
</clipPath>
</defs>
</svg>
