<svg width="32" height="32" viewBox="0 0 32 32" fill="none" xmlns="http://www.w3.org/2000/svg">
<path fill-rule="evenodd" clip-rule="evenodd" d="M23.2647 2.3335C22.0667 2.33346 21.0677 2.33343 20.2747 2.44005C19.4376 2.55259 18.6819 2.80015 18.0746 3.40744C17.4673 4.01474 17.2197 4.77047 17.1072 5.60753C17.0006 6.40056 17.0006 7.39951 17.0007 8.59747V8.73616C17.0006 9.93412 17.0006 10.9331 17.1072 11.7261C17.2197 12.5632 17.4673 13.3189 18.0746 13.9262C18.6819 14.5335 19.4376 14.7811 20.2747 14.8936C21.0677 15.0002 22.0667 15.0002 23.2646 15.0002H23.4033C24.6013 15.0002 25.6003 15.0002 26.3933 14.8936C27.2304 14.7811 27.9861 14.5335 28.5934 13.9262C29.2007 13.3189 29.4482 12.5632 29.5608 11.7261C29.6674 10.9331 29.6674 9.93413 29.6673 8.73616V8.59751C29.6674 7.39953 29.6674 6.40057 29.5608 5.60753C29.4482 4.77047 29.2007 4.01474 28.5934 3.40744C27.9861 2.80015 27.2304 2.55259 26.3933 2.44005C25.6003 2.33343 24.6013 2.33346 23.4034 2.3335H23.2647ZM19.4888 4.82166C19.6626 4.6479 19.9259 4.50494 20.5412 4.42221C21.1852 4.33562 22.0486 4.3335 23.334 4.3335C24.6193 4.3335 25.4827 4.33562 26.1268 4.42221C26.7421 4.50494 27.0054 4.6479 27.1792 4.82166C27.3529 4.99541 27.4959 5.25874 27.5786 5.87402C27.6652 6.51807 27.6673 7.38148 27.6673 8.66683C27.6673 9.95218 27.6652 10.8156 27.5786 11.4596C27.4959 12.0749 27.3529 12.3383 27.1792 12.512C27.0054 12.6858 26.7421 12.8287 26.1268 12.9115C25.4827 12.998 24.6193 13.0002 23.334 13.0002C22.0486 13.0002 21.1852 12.998 20.5412 12.9115C19.9259 12.8287 19.6626 12.6858 19.4888 12.512C19.3151 12.3383 19.1721 12.0749 19.0894 11.4596C19.0028 10.8156 19.0007 9.95218 19.0007 8.66683C19.0007 7.38148 19.0028 6.51807 19.0894 5.87402C19.1721 5.25874 19.3151 4.99541 19.4888 4.82166Z" fill="#999999"/>
<path fill-rule="evenodd" clip-rule="evenodd" d="M8.598 17.0002C7.40004 17.0001 6.40105 17.0001 5.60802 17.1067C4.77096 17.2193 4.01522 17.4668 3.40793 18.0741C2.80064 18.6814 2.55308 19.4371 2.44054 20.2742C2.33392 21.0672 2.33395 22.0662 2.33399 23.2641V23.4028C2.33395 24.6008 2.33392 25.5998 2.44054 26.3928C2.55308 27.2299 2.80064 27.9856 3.40793 28.5929C4.01522 29.2002 4.77096 29.4477 5.60802 29.5603C6.40106 29.6669 7.40002 29.6669 8.598 29.6668H8.73665C9.93462 29.6669 10.9336 29.6669 11.7266 29.5603C12.5637 29.4477 13.3194 29.2002 13.9267 28.5929C14.534 27.9856 14.7816 27.2299 14.8941 26.3928C15.0007 25.5998 15.0007 24.6008 15.0007 23.4029V23.2642C15.0007 22.0662 15.0007 21.0672 14.8941 20.2742C14.7816 19.4371 14.534 18.6814 13.9267 18.0741C13.3194 17.4668 12.5637 17.2193 11.7266 17.1067C10.9336 17.0001 9.93465 17.0001 8.73669 17.0002H8.598ZM4.82214 19.4883C4.9959 19.3146 5.25923 19.1716 5.87451 19.0889C6.51856 19.0023 7.38197 19.0002 8.66732 19.0002C9.95267 19.0002 10.8161 19.0023 11.4601 19.0889C12.0754 19.1716 12.3387 19.3146 12.5125 19.4883C12.6863 19.6621 12.8292 19.9254 12.9119 20.5407C12.9985 21.1847 13.0007 22.0482 13.0007 23.3335C13.0007 24.6188 12.9985 25.4823 12.9119 26.1263C12.8292 26.7416 12.6863 27.0049 12.5125 27.1787C12.3387 27.3524 12.0754 27.4954 11.4601 27.5781C10.8161 27.6647 9.95267 27.6668 8.66732 27.6668C7.38197 27.6668 6.51856 27.6647 5.87451 27.5781C5.25923 27.4954 4.9959 27.3524 4.82214 27.1787C4.64839 27.0049 4.50542 26.7416 4.4227 26.1263C4.33611 25.4823 4.33399 24.6188 4.33399 23.3335C4.33399 22.0482 4.33611 21.1847 4.4227 20.5407C4.50542 19.9254 4.64839 19.6621 4.82214 19.4883Z" fill="#999999"/>
<path fill-rule="evenodd" clip-rule="evenodd" d="M2.33399 8.66683C2.33399 5.16903 5.16952 2.3335 8.66732 2.3335C12.1651 2.3335 15.0007 5.16903 15.0007 8.66683C15.0007 12.1646 12.1651 15.0002 8.66732 15.0002C5.16952 15.0002 2.33399 12.1646 2.33399 8.66683ZM8.66732 4.3335C6.27409 4.3335 4.33399 6.2736 4.33399 8.66683C4.33399 11.0601 6.27409 13.0002 8.66732 13.0002C11.0606 13.0002 13.0007 11.0601 13.0007 8.66683C13.0007 6.2736 11.0606 4.3335 8.66732 4.3335Z" fill="#999999"/>
<path fill-rule="evenodd" clip-rule="evenodd" d="M17.0007 23.3335C17.0007 19.8357 19.8362 17.0002 23.334 17.0002C26.8318 17.0002 29.6673 19.8357 29.6673 23.3335C29.6673 26.8313 26.8318 29.6668 23.334 29.6668C19.8362 29.6668 17.0007 26.8313 17.0007 23.3335ZM23.334 19.0002C20.9408 19.0002 19.0007 20.9403 19.0007 23.3335C19.0007 25.7267 20.9408 27.6668 23.334 27.6668C25.7272 27.6668 27.6673 25.7267 27.6673 23.3335C27.6673 20.9403 25.7272 19.0002 23.334 19.0002Z" fill="#999999"/>
</svg>
